<?xml version="1.0" encoding="UTF-8" standalone="no"?>
<svg
   xmlns:dc="http://purl.org/dc/elements/1.1/"
   xmlns:cc="http://creativecommons.org/ns#"
   xmlns:rdf="http://www.w3.org/1999/02/22-rdf-syntax-ns#"
   xmlns:svg="http://www.w3.org/2000/svg"
   xmlns="http://www.w3.org/2000/svg"
   xmlns:sodipodi="http://sodipodi.sourceforge.net/DTD/sodipodi-0.dtd"
   xmlns:inkscape="http://www.inkscape.org/namespaces/inkscape"
   enable-background="new 0 0 58 58"
   height="512"
   viewBox="0 0 58 58"
   width="512"
   version="1.1"
   id="svg4"
   sodipodi:docname="cancel.svg"
   inkscape:version="0.92.5 (2060ec1f9f, 2020-04-08)">
  <metadata
     id="metadata10">
    <rdf:RDF>
      <cc:Work
         rdf:about="">
        <dc:format>image/svg+xml</dc:format>
        <dc:type
           rdf:resource="http://purl.org/dc/dcmitype/StillImage" />
      </cc:Work>
    </rdf:RDF>
  </metadata>
  <defs
     id="defs8" />
  <sodipodi:namedview
     pagecolor="#ffffff"
     bordercolor="#666666"
     borderopacity="1"
     objecttolerance="10"
     gridtolerance="10"
     guidetolerance="10"
     inkscape:pageopacity="0"
     inkscape:pageshadow="2"
     inkscape:window-width="772"
     inkscape:window-height="480"
     id="namedview6"
     showgrid="false"
     inkscape:zoom="0.4609375"
     inkscape:cx="-129.08475"
     inkscape:cy="256"
     inkscape:window-x="72"
     inkscape:window-y="26"
     inkscape:window-maximized="0"
     inkscape:current-layer="svg4" />
  <path
     d="m29 0c-16.016 0-29 12.984-29 29s12.984 29 29 29 29-12.984 29-29-12.984-29-29-29zm-24 29c0-13.233 10.767-24 24-24 5.846 0 11.208 2.103 15.375 5.589l-33.786 33.786c-3.486-4.167-5.589-9.53-5.589-15.375zm24 24c-5.59 0-10.736-1.927-14.82-5.144l33.676-33.677c3.217 4.085 5.144 9.231 5.144 14.821 0 13.233-10.767 24-24 24z"
     fill="#dd352e"
     id="path2"
     style="fill:#000000;fill-opacity:1" />
</svg>
