<?xml version="1.0" encoding="UTF-8" standalone="no"?>
<svg
   xmlns:dc="http://purl.org/dc/elements/1.1/"
   xmlns:cc="http://creativecommons.org/ns#"
   xmlns:rdf="http://www.w3.org/1999/02/22-rdf-syntax-ns#"
   xmlns:svg="http://www.w3.org/2000/svg"
   xmlns="http://www.w3.org/2000/svg"
   xmlns:sodipodi="http://sodipodi.sourceforge.net/DTD/sodipodi-0.dtd"
   xmlns:inkscape="http://www.inkscape.org/namespaces/inkscape"
   height="512pt"
   viewBox="0 0 512 512"
   width="512pt"
   version="1.1"
   id="svg4"
   sodipodi:docname="checkbox (copy).svg"
   inkscape:version="0.92.5 (2060ec1f9f, 2020-04-08)">
  <metadata
     id="metadata10">
    <rdf:RDF>
      <cc:Work
         rdf:about="">
        <dc:format>image/svg+xml</dc:format>
        <dc:type
           rdf:resource="http://purl.org/dc/dcmitype/StillImage" />
      </cc:Work>
    </rdf:RDF>
  </metadata>
  <defs
     id="defs8" />
  <sodipodi:namedview
     pagecolor="#ffffff"
     bordercolor="#666666"
     borderopacity="1"
     objecttolerance="10"
     gridtolerance="10"
     guidetolerance="10"
     inkscape:pageopacity="0"
     inkscape:pageshadow="2"
     inkscape:window-width="772"
     inkscape:window-height="480"
     id="namedview6"
     showgrid="false"
     inkscape:zoom="0.34570313"
     inkscape:cx="854.77966"
     inkscape:cy="341.33333"
     inkscape:window-x="72"
     inkscape:window-y="26"
     inkscape:window-maximized="0"
     inkscape:current-layer="svg4" />
  <path
     id="path2"
     transform="scale(0.74999998)"
     style="stroke-width:1.33333337"
     d="M 80,0 C 35.885415,0 0,35.885415 0,80 v 522.66602 c 0,44.11458 35.885415,80 80,80 h 522.66602 c 44.11458,0 80,-35.88542 80,-80 V 80 c 0,-44.114585 -35.88542,-80 -80,-80 z m 0,53.333984 h 522.66602 c 14.70312,0 26.66796,11.96289 26.66796,26.666016 v 522.66602 c 0,14.70312 -11.96484,26.66796 -26.66796,26.66796 H 80 c -14.703126,0 -26.666016,-11.96484 -26.666016,-26.66796 V 80 C 53.333984,65.296874 65.296874,53.333984 80,53.333984 Z" />
</svg>
