<?xml version="1.0" encoding="UTF-8" standalone="no"?>
<!-- Generator: Adobe Illustrator 19.0.0, SVG Export Plug-In . SVG Version: 6.00 Build 0)  -->

<svg
   xmlns:dc="http://purl.org/dc/elements/1.1/"
   xmlns:cc="http://creativecommons.org/ns#"
   xmlns:rdf="http://www.w3.org/1999/02/22-rdf-syntax-ns#"
   xmlns:svg="http://www.w3.org/2000/svg"
   xmlns="http://www.w3.org/2000/svg"
   xmlns:sodipodi="http://sodipodi.sourceforge.net/DTD/sodipodi-0.dtd"
   xmlns:inkscape="http://www.inkscape.org/namespaces/inkscape"
   version="1.1"
   id="Capa_1"
   x="0px"
   y="0px"
   viewBox="0 0 512 512"
   style="enable-background:new 0 0 512 512;"
   xml:space="preserve"
   sodipodi:docname="add.svg"
   inkscape:version="0.92.5 (2060ec1f9f, 2020-04-08)"><metadata
   id="metadata55"><rdf:RDF><cc:Work
       rdf:about=""><dc:format>image/svg+xml</dc:format><dc:type
         rdf:resource="http://purl.org/dc/dcmitype/StillImage" /></cc:Work></rdf:RDF></metadata><defs
   id="defs53" /><sodipodi:namedview
   pagecolor="#ffffff"
   bordercolor="#666666"
   borderopacity="1"
   objecttolerance="10"
   gridtolerance="10"
   guidetolerance="10"
   inkscape:pageopacity="0"
   inkscape:pageshadow="2"
   inkscape:window-width="772"
   inkscape:window-height="480"
   id="namedview51"
   showgrid="false"
   inkscape:zoom="0.4609375"
   inkscape:cx="-370.98305"
   inkscape:cy="256"
   inkscape:window-x="72"
   inkscape:window-y="26"
   inkscape:window-maximized="0"
   inkscape:current-layer="Capa_1" />
<g
   id="g6"
   style="fill:#000000;fill-opacity:1">
	<g
   id="g4"
   style="fill:#000000;fill-opacity:1">
		<path
   d="M256,0C114.84,0,0,114.84,0,256s114.84,256,256,256s256-114.84,256-256S397.16,0,256,0z M256,475.429    c-120.997,0-219.429-98.432-219.429-219.429S135.003,36.571,256,36.571S475.429,135.003,475.429,256S376.997,475.429,256,475.429z    "
   id="path2"
   style="fill:#000000;fill-opacity:1" />
	</g>
</g>
<g
   id="g12"
   style="fill:#000000;fill-opacity:1">
	<g
   id="g10"
   style="fill:#000000;fill-opacity:1">
		<path
   d="M256,134.095c-10.1,0-18.286,8.186-18.286,18.286v207.238c0,10.1,8.186,18.286,18.286,18.286    c10.1,0,18.286-8.186,18.286-18.286V152.381C274.286,142.281,266.1,134.095,256,134.095z"
   id="path8"
   style="fill:#000000;fill-opacity:1" />
	</g>
</g>
<g
   id="g18"
   style="fill:#000000;fill-opacity:1">
	<g
   id="g16"
   style="fill:#000000;fill-opacity:1">
		<path
   d="M359.619,237.714H152.381c-10.1,0-18.286,8.186-18.286,18.286c0,10.1,8.186,18.286,18.286,18.286h207.238    c10.1,0,18.286-8.186,18.286-18.286C377.905,245.9,369.719,237.714,359.619,237.714z"
   id="path14"
   style="fill:#000000;fill-opacity:1" />
	</g>
</g>
<g
   id="g20"
   style="fill:#000000;fill-opacity:1">
</g>
<g
   id="g22"
   style="fill:#000000;fill-opacity:1">
</g>
<g
   id="g24"
   style="fill:#000000;fill-opacity:1">
</g>
<g
   id="g26"
   style="fill:#000000;fill-opacity:1">
</g>
<g
   id="g28"
   style="fill:#000000;fill-opacity:1">
</g>
<g
   id="g30"
   style="fill:#000000;fill-opacity:1">
</g>
<g
   id="g32"
   style="fill:#000000;fill-opacity:1">
</g>
<g
   id="g34"
   style="fill:#000000;fill-opacity:1">
</g>
<g
   id="g36"
   style="fill:#000000;fill-opacity:1">
</g>
<g
   id="g38"
   style="fill:#000000;fill-opacity:1">
</g>
<g
   id="g40"
   style="fill:#000000;fill-opacity:1">
</g>
<g
   id="g42"
   style="fill:#000000;fill-opacity:1">
</g>
<g
   id="g44"
   style="fill:#000000;fill-opacity:1">
</g>
<g
   id="g46"
   style="fill:#000000;fill-opacity:1">
</g>
<g
   id="g48"
   style="fill:#000000;fill-opacity:1">
</g>
</svg>